<?xml version="1.0" encoding="UTF-8"?>
<!DOCTYPE svg PUBLIC "-//W3C//DTD SVG 1.1//EN" "http://www.w3.org/Graphics/SVG/1.1/DTD/svg11.dtd">
<!-- Creator: CorelDRAW -->
<svg xmlns="http://www.w3.org/2000/svg" xml:space="preserve" width="287px" height="79px" style="shape-rendering:geometricPrecision; text-rendering:geometricPrecision; image-rendering:optimizeQuality; fill-rule:evenodd; clip-rule:evenodd"
viewBox="0 0 282.656 78.0244"
 xmlns:xlink="http://www.w3.org/1999/xlink">
 <defs>
  <style type="text/css">
   <![CDATA[
    .fil1 {fill:#9D3B34}
    .fil0 {fill:#D6B185}
   ]]>
  </style>
 </defs>
 <g id="Capa_x0020_1">
  <metadata id="CorelCorpID_0Corel-Layer"/>
  <path class="fil0" d="M257.343 47.2911l0.163017 -2.3649 0.335348 -8.66899c0.0209593,-1.54516 0.0349321,-3.14273 0.0349321,-4.78104 0,-1.64414 -0.0151373,-3.70048 -0.0617134,-6.1434 2.73169,0.0500694 4.90913,0.0745219 6.50436,0.0745219 1.88284,0 4.05329,-0.0244525 6.49388,-0.0745219l-0.143222 3.8437c0.886112,-0.997894 1.60804,-1.73613 2.16696,-2.23449 0.5659,-0.484392 1.22612,-0.916386 1.93408,-1.3216 0.737068,-0.383089 1.49044,-0.686998 2.28573,-0.879125 0.789466,-0.194455 1.61503,-0.289937 2.48367,-0.289937 0.80111,0 1.71284,0.123427 2.70957,0.334184 0.0244525,2.47785 0.0826727,4.52022 0.167674,6.12826l0.238703 5.21886c-1.23776,-0.350486 -2.40566,-0.542612 -3.48506,-0.542612 -1.36817,0 -2.54073,0.201442 -3.51883,0.592682 -0.981593,0.398226 -1.84791,0.997894 -2.62107,1.80133 -0.752205,0.802274 -1.34838,1.799 -1.80017,3.00533 -0.450624,1.2005 -0.780151,3.10314 -0.947825,5.70442 -0.0197949,0.192127 -0.0360965,0.398226 -0.0407541,0.597339l-12.8993 0zm-230.613 30.7333c-2.23798,-2.84697 28.8423,-13.6433 39.6852,-28.231l-7.11684 0 0 -2.36258 8.65502 0c3.74007,-6.54744 3.07286,-13.7889 -6.49621,-21.3645 -18.8762,-14.9521 -24.1963,-22.3996 -26.4762,-25.6914 -2.2799,-3.2941 -28.8935,14.852 -34.1217,37.0618 -5.91634,25.1965 20.3526,13.7714 25.8707,40.5876zm-20.5168 -39.9891l2.03654 -1.7862 2.1297 1.7862 -0.778986 -2.43477 2.17976 -1.54051 -2.6595 0 -0.870974 -2.6595 -0.831385 2.6595 -2.41614 0 1.99346 1.5603 -0.78248 2.41497zm-0.775493 9.42469l2.03654 -1.7862 2.13901 1.7862 -0.78248 -2.44292 2.17278 -1.53818 -2.65833 0 -0.870974 -2.65833 -0.823234 2.65833 -2.42895 0 1.99113 1.55332 -0.775493 2.42778zm5.03372 6.65457l2.03654 -1.7862 2.13901 1.7862 -0.789466 -2.44176 2.1786 -1.53585 -2.65484 0 -0.873303 -2.6595 -0.822069 2.6595 -2.43244 0 1.99695 1.55797 -0.778986 2.41963zm9.91024 -22.5615l29.1171 0 0 27.2564 -29.1171 0 0 -27.2564zm5.60893 14.5248l7.25657 0 0 8.04487 -7.25657 0 0 -8.04487zm11.3774 0l7.24725 0 0 8.04487 -7.24725 0 0 -8.04487zm0 -10.5751l7.24725 0 0 8.05884 -7.24725 0 0 -8.05884zm-11.3774 0l7.25657 0 0 8.05884 -7.25657 0 0 -8.05884zm-9.43633 -6.69067l37.4449 0 -18.8249 -18.8284 -18.62 18.8284zm73.8686 18.4791c0,-0.38076 -0.0686998,-0.744054 -0.176989,-1.09687 -0.10829,-0.346992 -0.32254,-0.738232 -0.641587,-1.18886 -0.328362,-0.445967 -0.770836,-0.912893 -1.35187,-1.44386l-6.38326 -5.56469c-1.49509,-1.26687 -2.53607,-2.18559 -3.12992,-2.74566 -1.19235,-1.15509 -2.13785,-2.23449 -2.79573,-3.23006 -0.676519,-0.99673 -1.15742,-2.00394 -1.46482,-3.03793 -0.301581,-1.02817 -0.461104,-2.12038 -0.461104,-3.27663 0,-1.37982 0.248018,-2.73751 0.733575,-4.04863 0.480899,-1.32043 1.21797,-2.56635 2.18442,-3.72959 0.985086,-1.14112 2.26826,-2.13785 3.87747,-2.99135 1.5964,-0.831385 3.3267,-1.39961 5.1618,-1.70352 1.82928,-0.303909 3.70746,-0.457611 5.659,-0.457611 3.82157,0 7.98083,0.441309 12.4964,1.32742 0.060549,1.55448 0.144386,2.98786 0.223566,4.28734 0.0978099,1.3053 0.32254,3.5852 0.656724,6.8467 -2.08428,-0.834878 -3.97993,-1.41126 -5.70209,-1.7501 -1.72215,-0.324869 -3.19512,-0.491379 -4.43522,-0.491379 -1.76989,0 -3.23937,0.330691 -4.40261,0.988579 -1.1644,0.641587 -1.74661,1.46366 -1.74661,2.44525 0,0.445967 0.0908235,0.887276 0.268977,1.31461 0.187469,0.434323 0.520489,0.935017 1.02002,1.5114 0.498365,0.57638 1.16208,1.21797 1.96435,1.89332 0.818576,0.697478 2.10641,1.72215 3.8402,3.0717l2.45107 1.94572c0.716109,0.582202 1.49277,1.30064 2.33812,2.13319 0.831385,0.839535 1.54516,1.65928 2.16113,2.47902 0.622956,0.816247 1.08057,1.57544 1.41242,2.24264 0.33302,0.680012 0.575216,1.3705 0.739397,2.04469 0.139728,0.698642 0.221237,1.44386 0.223566,2.22518l-14.7204 0zm22.9388 -26.2596c0.136235,-2.68861 0.207264,-4.82762 0.207264,-6.38676 0,-0.456446 -0.00582202,-1.07125 -0.0395897,-1.82928 2.74217,0.043083 5.03139,0.0652066 6.8956,0.0652066 2.55354,0 4.78919,-0.0221237 6.71628,-0.0652066 -0.0686998,0.706793 -0.111783,1.28783 -0.142057,1.75359l-0.193291 4.22446c-0.0500694,0.624121 -0.066371,1.37865 -0.066371,2.23798 -2.24148,-0.054727 -4.40145,-0.0721931 -6.44498,-0.0721931 -2.13552,0 -4.43987,0.0174661 -6.93286,0.0721931zm-1.03283 26.2596c0.0256169,-0.32254 0.0372609,-0.650902 0.0628778,-0.985086 0.142057,-2.7806 0.270142,-5.85113 0.387747,-9.22208 0.123427,-3.36746 0.2061,-7.27985 0.267813,-11.7512 2.94012,0.0500694 5.30037,0.0745219 7.05396,0.0745219 1.61154,0 3.92521,-0.0244525 6.9317,-0.0745219 -0.374938,4.27686 -0.661382,8.03905 -0.832549,11.2877 -0.16651,3.22656 -0.279457,6.65108 -0.324869,10.2666l-0.00698642 0.404048 -13.5397 0zm32.8164 0c-0.163017,-0.125756 -0.330691,-0.26432 -0.515831,-0.404048 -1.85257,-1.35187 -3.48739,-2.57799 -4.89865,-3.69582 -1.42872,-1.11317 -2.47902,-2.08894 -3.20328,-2.95176 -0.725424,-0.855837 -1.25872,-1.78736 -1.63832,-2.78525 -0.372609,-0.99673 -0.54727,-2.02606 -0.54727,-3.08451 0,-1.88401 0.530968,-3.63643 1.6127,-5.2666 1.07242,-1.61969 2.66183,-2.80272 4.74495,-3.54328 2.09593,-0.735903 4.65063,-1.10851 7.65596,-1.10851 3.14622,0 7.16691,0.414528 12.0539,1.21797l0.544941 9.54579c-2.73286,-1.08406 -5.37955,-1.62434 -7.91445,-1.62434 -1.78736,0 -3.07868,0.178154 -3.87863,0.540284 -0.805768,0.367952 -1.20632,0.914057 -1.20632,1.66044 0,0.249182 0.0465762,0.487885 0.140893,0.71378 0.0838371,0.22473 0.249182,0.464597 0.484392,0.705629 0.239867,0.256169 0.532133,0.515831 0.883783,0.773164 0.352814,0.259662 1.20516,0.866317 2.57333,1.81298 1.34605,0.948989 2.41497,1.72914 3.17649,2.34744 1.27502,0.999059 2.23682,1.91661 2.91217,2.7643 0.585695,0.744054 1.05611,1.544 1.39496,2.38237l-14.3757 0zm33.3555 0c0.498365,-7.43472 0.81159,-15.3142 0.961798,-23.6269l-14.4584 0.370281 0.161852 -3.76568c0.0873303,-2.00976 0.163017,-4.21049 0.207264,-6.61731 6.42984,0.0465762 13.9193,0.0791795 22.4695,0.0791795l8.38837 -0.0395897 8.14734 0 4.41542 -0.0395897 -0.207264 3.32437c-0.0943167,1.78503 -0.160688,3.26615 -0.192127,4.42823 -0.0314389,1.16906 -0.0477406,2.04819 -0.0477406,2.63039 -4.83577,-0.24336 -8.83666,-0.370281 -11.9747,-0.370281l-2.37538 0c-0.335348,3.99856 -0.610148,7.69555 -0.780151,11.0875 -0.221237,4.28268 -0.405213,8.46638 -0.534461,12.5395l-14.1813 0zm32.8793 0l0.471584 -6.57888c0.157195,-2.82601 0.305074,-5.96058 0.434323,-9.40256 0.0908235,-2.09942 0.142057,-4.09172 0.142057,-5.97689 2.80505,0.0500694 5.18858,0.0745219 7.16807,0.0745219 1.99462,0 4.17905,-0.0244525 6.57073,-0.0745219l-1.04331 12.94c-0.157195,1.96668 -0.242196,3.30924 -0.249182,4.01719 -0.00698642,0.724259 -0.0232881,1.18886 -0.0232881,1.44735 0,1.48694 0.189798,2.66299 0.562407,3.55376l-14.0334 0zm23.2147 0c0.208428,-0.294594 0.388911,-0.618299 0.558914,-0.985086 0.356308,-0.739397 0.641587,-1.53934 0.812754,-2.41265 0.250347,-1.18886 0.457611,-2.70025 0.581038,-4.52837 0.0850015,-1.33557 0.208428,-3.65623 0.373774,-6.93752l0.249182 -7.09471c2.9145,0.0500694 5.31783,0.0745219 7.1902,0.0745219 2.11689,0 4.22679,-0.0244525 6.35415,-0.0745219 -0.520489,5.75449 -0.918715,11.2179 -1.21098,16.3995 -0.103632,1.74661 -0.199113,3.605 -0.281786,5.55887l-14.6272 0z"/>
  <path class="fil1" d="M256.45 60.0029l0.731246 -10.3667 12.9354 0c-0.0815083,1.84674 -0.119934,3.83555 -0.119934,5.97689 0,1.18769 0.048905,2.64902 0.144386,4.3898 -2.20189,-0.0523982 -4.40261,-0.0721931 -6.62313,-0.0721931 -2.20305,0 -4.54467,0.0197949 -7.06793,0.0721931zm-183.447 -0.731246c-0.236374,-3.81226 -0.501858,-7.02485 -0.787137,-9.63544l4.90098 0c0.563572,0.168839 1.11433,0.315554 1.63948,0.431994 1.97716,0.434323 3.70863,0.656724 5.20605,0.656724 1.97716,0 3.55143,-0.288772 4.70885,-0.863988 0.138564,-0.0675354 0.26432,-0.149044 0.388911,-0.22473l15.8662 0c-0.239867,1.19701 -0.650902,2.36025 -1.24242,3.48273 -0.962962,1.8514 -2.3486,3.36396 -4.13713,4.55049 -1.79668,1.18886 -3.75637,2.01325 -5.89188,2.49299 -2.14134,0.473912 -4.39097,0.721931 -6.76635,0.721931 -3.66671,0 -8.29987,-0.537955 -13.8855,-1.6127zm38.2111 0.731246c0.321376,-2.76779 0.567065,-5.05119 0.725424,-6.83622 0.0873303,-1.00605 0.174661,-2.18442 0.259662,-3.53047l13.6398 0c-0.054727,4.9429 -0.0931523,8.39535 -0.0931523,10.3667 -2.69909,-0.0523982 -5.01625,-0.0721931 -6.95848,-0.0721931 -1.93058,0 -4.43405,0.0197949 -7.57328,0.0721931zm21.6335 -0.653231c-0.0943167,-0.997894 -0.194455,-2.03771 -0.272471,-3.14738 -0.0954811,-1.09105 -0.239867,-2.59779 -0.447131,-4.52953l-0.230552 -2.03654 1.02817 0c1.75126,0.656724 3.28595,1.16906 4.60289,1.52653 1.58941,0.415692 3.04725,0.624121 4.38398,0.624121 1.10851,0 2.00976,-0.114112 2.70025,-0.303909 0.689327,-0.209593 1.19701,-0.497201 1.50907,-0.89892 0.256169,-0.298087 0.401719,-0.626449 0.456446,-0.947825l13.5455 0c0.0337677,0.334184 0.0593846,0.681176 0.0593846,1.02584 0,1.60804 -0.400555,3.07868 -1.17139,4.43522 -0.789466,1.34372 -1.95853,2.46504 -3.53513,3.37561 -1.57544,0.896591 -3.27663,1.53003 -5.10941,1.88168 -1.83394,0.350486 -3.72493,0.529804 -5.67298,0.529804 -1.32043,0 -2.95759,-0.122262 -4.94872,-0.335348 -1.97832,-0.242196 -4.27686,-0.625285 -6.89793,-1.19934zm44.5792 0.653231c0.338842,-3.35465 0.640422,-6.80245 0.9094,-10.3667l14.2803 0c-0.124591,4.23377 -0.189798,7.6874 -0.189798,10.3667 -3.70048,-0.0523982 -6.10614,-0.0721931 -7.18787,-0.0721931 -0.981593,0 -3.58054,0.0197949 -7.81199,0.0721931zm71.4071 0c-2.59429,-0.0523982 -4.74378,-0.0721931 -6.46361,-0.0721931 -2.12504,0 -4.25823,0.0197949 -6.41237,0.0721931l-0.048905 -4.64714c-0.816247,1.00721 -1.51256,1.76174 -2.07031,2.28107 -0.568229,0.50768 -1.19235,0.964127 -1.85257,1.33906 -0.671861,0.376103 -1.41126,0.717273 -2.23566,0.99673 -0.832549,0.289937 -1.78037,0.508845 -2.83998,0.66371 -1.08057,0.16651 -2.16928,0.248018 -3.28246,0.248018 -1.7862,0 -3.48506,-0.210757 -5.07331,-0.625285 -1.60921,-0.42035 -3.00649,-1.12714 -4.21281,-2.12387 -1.2168,-0.993237 -2.04004,-2.13785 -2.47552,-3.39773 -0.44946,-1.25872 -0.661382,-2.74101 -0.661382,-4.41193 0,-0.186305 0,-0.407541 0.0139728,-0.689327l17.1214 0c0.441309,0.11644 0.915222,0.171167 1.41009,0.171167 0.461104,0 0.905906,-0.054727 1.36235,-0.171167l18.0238 0c-0.125756,3.19862 -0.230552,6.65457 -0.302745,10.3667z"/>
 </g>
</svg>
